<svg width="64" height="64" viewBox="0 0 64 64" fill="none" xmlns="http://www.w3.org/2000/svg">
<g clip-path="url(#clip0_304_24)">
<rect width="64" height="64" fill="white"/>
<path d="M33 48V15H30.9375V17.0625H28.875V19.125H26.8125V21.1875H24.75V23.25H22.6875V25.3125H20.625V27.375H18.5625V29.4375H16.5V31.5H14.4375V33.5625H12.375V35.625H10.3125V37.6875H8.25V39.75H6.1875V41.8125H4.125V43.875H2.0625V45.9375H0V48H33Z" fill="black"/>
<path d="M1 16L32 47L1 47L1 16Z" fill="white"/>
<path d="M31 48L64 48L64 45.9375L61.9375 45.9375L61.9375 43.875L59.875 43.875L59.875 41.8125L57.8125 41.8125L57.8125 39.75L55.75 39.75L55.75 37.6875L53.6875 37.6875L53.6875 35.625L51.625 35.625L51.625 33.5625L49.5625 33.5625L49.5625 31.5L47.5 31.5L47.5 29.4375L45.4375 29.4375L45.4375 27.375L43.375 27.375L43.375 25.3125L41.3125 25.3125L41.3125 23.25L39.25 23.25L39.25 21.1875L37.1875 21.1875L37.1875 19.125L35.125 19.125L35.125 17.0625L33.0625 17.0625L33.0625 15L31 15L31 48Z" fill="black"/>
<path fill-rule="evenodd" clip-rule="evenodd" d="M-6.10352e-05 48.0001V17.0625V15.0001L-6.48499e-05 15L2.06244 15V15.0001V17.0624L4.12488 17.0624V19.1249L6.18732 19.1249V21.1874L4.12481 21.1874V19.1249L2.06244 19.1249V45.9375L28.8751 45.9375V43.8752H26.8126V41.8127H24.7502V39.7502H26.8127L26.8127 41.8127H28.8751L28.8751 43.8751H30.9376L30.9376 45.9375H33V48L2.06244 48.0001H-6.10352e-05ZM8.24976 23.2503V21.1878L6.18725 21.1878V23.2503H8.24976ZM10.3126 25.3127V27.3752H12.3751V29.4376H14.4375V31.5H16.4999V33.5625H18.5624V35.6249H20.6248V37.6874H22.6873V35.6249H20.6249V33.5624H18.5624V31.5H16.5V29.4375H14.4376V27.3751H12.3751V25.3127H10.3127V23.2502H8.25018V25.3127H10.3126ZM24.7498 37.6878V39.7503H22.6873V37.6878H24.7498Z" fill="black"/>
<path d="M32 16V47L63 16H32Z" fill="white"/>
<path fill-rule="evenodd" clip-rule="evenodd" d="M30.9677 14.9999L61.9355 14.9999L63.9999 14.9999L64 14.9999L64 17.0624L63.9999 17.0624L61.9355 17.0624L61.9355 19.1249L59.8711 19.1249L59.8711 21.1873L57.8066 21.1873L57.8066 19.1248L59.871 19.1248L59.871 17.0624L33.0322 17.0624L33.0322 43.8751L35.0966 43.8751L35.0966 41.8126L37.1611 41.8126L37.1611 39.7502L39.2256 39.7502L39.2256 41.8127L37.1611 41.8127L37.1611 43.8751L35.0967 43.8751L35.0967 45.9376L33.0322 45.9376L33.0322 48L30.9677 48L30.9677 17.0624L30.9677 15L30.9677 14.9999ZM55.7416 23.2498L57.8062 23.2498L57.8062 21.1873L55.7416 21.1873L55.7416 23.2498ZM53.6772 25.3126L51.6127 25.3126L51.6127 27.3751L49.5483 27.3751L49.5483 29.4375L47.4838 29.4375L47.4838 31.4999L45.4194 31.4999L45.4194 33.5624L43.3549 33.5624L43.3549 35.6248L41.2905 35.6248L41.2905 37.6873L43.355 37.6873L43.355 35.6249L45.4194 35.6249L45.4194 33.5624L47.4839 33.5624L47.4839 31.5L49.5483 31.5L49.5483 29.4376L51.6128 29.4376L51.6128 27.3751L53.6772 27.3751L53.6772 25.3127L55.7417 25.3127L55.7417 23.2502L53.6772 23.2502L53.6772 25.3126ZM41.29 39.7498L39.2255 39.7498L39.2255 37.6873L41.29 37.6873L41.29 39.7498Z" fill="black"/>
</g>
<defs>
<clipPath id="clip0_304_24">
<rect width="64" height="64" fill="white"/>
</clipPath>
</defs>
</svg>
