<svg width="62" height="64" viewBox="0 0 62 64" fill="none" xmlns="http://www.w3.org/2000/svg">
<path fill-rule="evenodd" clip-rule="evenodd" d="M56 0H58V2H56V0ZM54 4V2H56V4H54ZM52 6V4H54V6H52ZM52 6V8H50V6H52ZM42 4H44V6H42V4ZM32 6H34V8H32V6ZM22 12H32V14H22V12ZM20 16V14H22V16H20ZM20 16V22H26V28H30V30H34V34H36V38H38V52H36V56H34V60H30V62H26V64H12V62H8V60H4V56H2V52H0V38H2V34H4V30H8V28H12V22H18V16H20ZM36 16H32V14H36V16ZM42 16H36V18H42V16ZM42 16V14H48V16H42ZM38 8H36V10H38V8ZM40 10H42V12H40V10ZM46 8H44V10H46V8ZM54 12H52V14H54V12ZM40 20H42V22H40V20ZM38 24V22H40V24H38ZM38 24V26H36V24H38ZM48 20H46V22H48V20ZM46 24H48V26H46V24ZM48 28H46V30H48V28ZM58 24H60V26H58V24ZM56 22H58V24H56V22ZM54 20H56V22H54V20ZM54 20H52V18H54V20ZM56 12H58V14H56V12ZM62 12H60V14H62V12ZM40 0H42V2H40V0Z" fill="black"/>
<rect x="28" y="38" width="2" height="2" fill="white"/>
<rect x="28" y="50" width="2" height="2" fill="white"/>
<rect x="24" y="54" width="2" height="2" fill="white"/>
<rect x="30" y="42" width="2" height="6" fill="white"/>
</svg>
