<svg width="8" height="8" viewBox="0 0 8 8" fill="none" xmlns="http://www.w3.org/2000/svg">
<rect width="8" height="8" fill="white"/>
<rect x="2" y="1" width="1" height="1" fill="black"/>
<rect x="6" y="1" width="1" height="1" fill="black"/>
<rect x="4" width="1" height="1" fill="black"/>
<rect width="1" height="1" fill="black"/>
<rect x="2" y="3" width="1" height="1" fill="black"/>
<rect x="6" y="3" width="1" height="1" fill="black"/>
<rect x="4" y="2" width="1" height="1" fill="black"/>
<rect y="2" width="1" height="1" fill="black"/>
<rect x="2" y="5" width="1" height="1" fill="black"/>
<rect x="6" y="5" width="1" height="1" fill="black"/>
<rect x="4" y="4" width="1" height="1" fill="black"/>
<rect y="4" width="1" height="1" fill="black"/>
<rect x="2" y="7" width="1" height="1" fill="black"/>
<rect x="6" y="7" width="1" height="1" fill="black"/>
<rect x="4" y="6" width="1" height="1" fill="black"/>
<rect y="6" width="1" height="1" fill="black"/>
</svg>
